<svg width="312" height="32" viewBox="0 0 312 32" fill="none" xmlns="http://www.w3.org/2000/svg">
<g filter="url(#filter0_d_2492_22136)">
<path d="M21.5628 1.00458L18.7856 1C15.6654 1 13.649 3.12509 13.649 6.41423V8.91055H10.8566C10.6153 8.91055 10.4199 9.1115 10.4199 9.35937V12.9763C10.4199 13.2241 10.6155 13.4249 10.8566 13.4249H13.649V22.5514C13.649 22.7993 13.8444 23 14.0857 23H17.729C17.9703 23 18.1657 22.799 18.1657 22.5514V13.4249H21.4307C21.672 13.4249 21.8674 13.2241 21.8674 12.9763L21.8688 9.35937C21.8688 9.24036 21.8226 9.12638 21.7409 9.04215C21.6591 8.95793 21.5477 8.91055 21.4318 8.91055H18.1657V6.79439C18.1657 5.77728 18.4017 5.26094 19.6915 5.26094L21.5624 5.26025C21.8035 5.26025 21.9989 5.0593 21.9989 4.81166V1.45317C21.9989 1.20576 21.8037 1.00504 21.5628 1.00458Z" fill="#787A80"/>
<path d="M82.5 5.77233C81.7271 6.10027 80.8978 6.32267 80.0264 6.42196C80.9161 5.91181 81.5972 5.10263 81.92 4.1414C81.0854 4.61383 80.1642 4.95688 79.1826 5.14285C78.3966 4.33994 77.2785 3.83984 76.0384 3.83984C73.6593 3.83984 71.7303 5.68691 71.7303 7.9637C71.7303 8.2866 71.7683 8.60199 71.8418 8.90357C68.262 8.73141 65.0877 7.08917 62.9631 4.59372C62.5918 5.20189 62.3805 5.91053 62.3805 6.66697C62.3805 8.09814 63.1416 9.36093 64.2964 10.0997C63.5904 10.0771 62.9264 9.89116 62.3451 9.58205V9.63357C62.3451 11.6314 63.8306 13.2988 65.8002 13.6783C65.4394 13.7713 65.0588 13.8228 64.6651 13.8228C64.387 13.8228 64.1179 13.7964 63.8542 13.7461C64.4027 15.3859 65.9931 16.5783 67.8776 16.611C66.4039 17.7167 64.5457 18.3739 62.5275 18.3739C62.1798 18.3739 61.8372 18.3537 61.5 18.3173C63.4067 19.4896 65.6704 20.1732 68.1033 20.1732C76.028 20.1732 80.3597 13.8881 80.3597 8.43741L80.3453 7.90341C81.1917 7.32537 81.9239 6.59912 82.5 5.77233Z" fill="#787A80"/>
<path fill-rule="evenodd" clip-rule="evenodd" d="M137.39 4.11358C138.418 4.39044 139.229 5.20086 139.506 6.22899C140.02 8.10691 140 12.0213 140 12.0213C140 12.0213 140 15.9158 139.506 17.7939C139.229 18.8218 138.418 19.6324 137.39 19.9091C135.512 20.4035 128 20.4035 128 20.4035C128 20.4035 120.507 20.4035 118.61 19.8895C117.581 19.6127 116.771 18.802 116.494 17.7741C116 15.9158 116 12.0015 116 12.0015C116 12.0015 116 8.10691 116.494 6.22899C116.771 5.20104 117.601 4.37066 118.609 4.09399C120.488 3.59961 128 3.59961 128 3.59961C128 3.59961 135.512 3.59961 137.39 4.11358ZM131.855 12.0016L125.608 15.5996V8.40355L131.855 12.0016Z" fill="#787A80"/>
<path d="M181.633 15.1813L181.269 20.7653C181.789 20.7653 182.015 20.5213 182.285 20.2283L184.726 17.6833L189.785 21.7243C190.712 22.2883 191.366 21.9913 191.616 20.7933L194.937 3.8214L194.937 3.8204C195.232 2.3244 194.442 1.73941 193.538 2.1064L174.021 10.2574C172.689 10.8214 172.71 11.6314 173.795 11.9984L178.784 13.6913L190.374 5.78039C190.92 5.38639 191.416 5.60439 191.008 5.99839L181.633 15.1813Z" fill="#787A80"/>
<path d="M249.98 7.88005C249.934 6.81738 249.762 6.0868 249.516 5.45374C249.262 4.78176 248.871 4.18014 248.359 3.68002C247.859 3.1721 247.253 2.77743 246.589 2.52745C245.952 2.28127 245.226 2.10943 244.163 2.06257C243.092 2.01175 242.752 2 240.037 2C237.322 2 236.982 2.01175 235.915 2.05861C234.853 2.10546 234.122 2.27746 233.489 2.52348C232.817 2.77743 232.215 3.16814 231.715 3.68002C231.207 4.18014 230.813 4.78573 230.563 5.44992C230.316 6.0868 230.145 6.81341 230.098 7.87609C230.047 8.9467 230.035 9.28658 230.035 12.002C230.035 14.7173 230.047 15.0572 230.094 16.1239C230.141 17.1865 230.313 17.9171 230.559 18.5502C230.813 19.2221 231.207 19.8238 231.715 20.3239C232.215 20.8318 232.821 21.2265 233.485 21.4765C234.122 21.7226 234.849 21.8945 235.911 21.9413C236.978 21.9883 237.318 21.9999 240.033 21.9999C242.749 21.9999 243.089 21.9883 244.155 21.9413C245.218 21.8945 245.948 21.7226 246.581 21.4765C247.925 20.9568 248.988 19.8941 249.508 18.5502C249.754 17.9133 249.926 17.1865 249.973 16.1239C250.019 15.0572 250.031 14.7173 250.031 12.002C250.031 9.28658 250.027 8.9467 249.98 7.88005ZM248.179 16.0457C248.136 17.0225 247.972 17.5499 247.836 17.9015C247.499 18.7728 246.808 19.4643 245.937 19.8004C245.585 19.9372 245.054 20.1012 244.081 20.1441C243.026 20.1911 242.71 20.2027 240.041 20.2027C237.373 20.2027 237.052 20.1911 236.001 20.1441C235.024 20.1012 234.497 19.9372 234.145 19.8004C233.712 19.6402 233.317 19.3862 232.997 19.0541C232.665 18.7298 232.411 18.3391 232.25 17.9055C232.114 17.5539 231.95 17.0225 231.907 16.0497C231.86 14.9948 231.848 14.6783 231.848 12.0097C231.848 9.34122 231.86 9.02087 231.907 7.96995C231.95 6.99319 232.114 6.46575 232.25 6.11412C232.411 5.68038 232.665 5.28586 233.001 4.96536C233.325 4.63327 233.716 4.37931 234.149 4.21921C234.501 4.08247 235.032 3.9184 236.005 3.87537C237.06 3.82851 237.377 3.81676 240.045 3.81676C242.717 3.81676 243.034 3.82851 244.085 3.87537C245.062 3.9184 245.589 4.08247 245.941 4.21921C246.374 4.37931 246.769 4.63327 247.089 4.96536C247.421 5.28967 247.675 5.68038 247.836 6.11412C247.972 6.46575 248.136 6.99701 248.179 7.96995C248.226 9.02484 248.238 9.34122 248.238 12.0097C248.238 14.6783 248.226 14.9908 248.179 16.0457Z" fill="#787A80"/>
<path d="M240.037 6.86423C237.201 6.86423 234.899 9.1654 234.899 12.002C234.899 14.8385 237.201 17.1397 240.037 17.1397C242.874 17.1397 245.175 14.8385 245.175 12.002C245.175 9.1654 242.874 6.86423 240.037 6.86423ZM240.037 15.3347C238.197 15.3347 236.704 13.8422 236.704 12.002C236.704 10.1617 238.197 8.66924 240.037 8.66924C241.877 8.66924 243.37 10.1617 243.37 12.002C243.37 13.8422 241.877 15.3347 240.037 15.3347Z" fill="#787A80"/>
<path d="M246.578 6.6611C246.578 7.32346 246.04 7.86053 245.378 7.86053C244.716 7.86053 244.179 7.32346 244.179 6.6611C244.179 5.99858 244.716 5.46167 245.378 5.46167C246.04 5.46167 246.578 5.99858 246.578 6.6611Z" fill="#787A80"/>
<path d="M305.995 22L306 21.9992V14.6642C306 11.0758 305.228 8.31167 301.033 8.31167C299.016 8.31167 297.662 9.41833 297.11 10.4675H297.052V8.64667H293.074V21.9992H297.216V15.3875C297.216 13.6467 297.546 11.9633 299.702 11.9633C301.826 11.9633 301.858 13.95 301.858 15.4992V22H305.995Z" fill="#787A80"/>
<path d="M286.33 8.6475H290.477V22H286.33V8.6475Z" fill="#787A80"/>
<path d="M288.402 2C287.076 2 286 3.07583 286 4.40167C286 5.7275 287.076 6.82583 288.402 6.82583C289.727 6.82583 290.803 5.7275 290.803 4.40167C290.802 3.07583 289.727 2 288.402 2Z" fill="#787A80"/>
</g>
<defs>
<filter id="filter0_d_2492_22136" x="0" y="0" width="312" height="32" filterUnits="userSpaceOnUse" color-interpolation-filters="sRGB">
<feFlood flood-opacity="0" result="BackgroundImageFix"/>
<feColorMatrix in="SourceAlpha" type="matrix" values="0 0 0 0 0 0 0 0 0 0 0 0 0 0 0 0 0 0 127 0" result="hardAlpha"/>
<feOffset dy="4"/>
<feGaussianBlur stdDeviation="2"/>
<feComposite in2="hardAlpha" operator="out"/>
<feColorMatrix type="matrix" values="0 0 0 0 0 0 0 0 0 0 0 0 0 0 0 0 0 0 0.25 0"/>
<feBlend mode="normal" in2="BackgroundImageFix" result="effect1_dropShadow_2492_22136"/>
<feBlend mode="normal" in="SourceGraphic" in2="effect1_dropShadow_2492_22136" result="shape"/>
</filter>
</defs>
</svg>
